<svg xmlns="http://www.w3.org/2000/svg" width="369" height="219.762" viewBox="0 0 369 219.762"><g transform="translate(-391 -343.838)"><path d="M131.232,312.614a50.267,50.267,0,0,1-19.912-44.657,46.966,46.966,0,0,1,3.558-14.15l-1.454.577a3.552,3.552,0,0,1-1.463.243,3.864,3.864,0,0,1-.585-7.689l0-.007,13.89-5.514,4.161,15.614a3.484,3.484,0,0,1-2.469,4.263l-.313.083a3.874,3.874,0,0,1-4.741-2.745l-.063-.237a40.992,40.992,0,0,0-2.531,14.494A40.617,40.617,0,0,0,160.1,313.736a40.616,40.616,0,0,0,40.845-40.782q.015-18.985-15-31.714a38.562,38.562,0,0,0-21.349-8.924,41.339,41.339,0,0,0-21.6,3.475,4.355,4.355,0,1,1-4.375-7.034,49.314,49.314,0,0,1,54.649,8.007q16.849,15.669,15.847,38.71a48.114,48.114,0,0,1-12.759,30.515q-14.82,15.984-36.257,15.969A46.993,46.993,0,0,1,131.232,312.614Z" transform="translate(352.929 119.95)" fill="#0091d9" opacity="0.25"/><path d="M131.232,312.614a50.267,50.267,0,0,1-19.912-44.657,46.966,46.966,0,0,1,3.558-14.15l-1.454.577a3.552,3.552,0,0,1-1.463.243,3.864,3.864,0,0,1-.585-7.689l0-.007,13.89-5.514,4.161,15.614a3.484,3.484,0,0,1-2.469,4.263l-.313.083a3.874,3.874,0,0,1-4.741-2.745l-.063-.237a40.992,40.992,0,0,0-2.531,14.494A40.617,40.617,0,0,0,160.1,313.736a40.616,40.616,0,0,0,40.845-40.782q.015-18.985-15-31.714a38.562,38.562,0,0,0-21.349-8.924,41.339,41.339,0,0,0-21.6,3.475,4.355,4.355,0,1,1-4.375-7.034,49.314,49.314,0,0,1,54.649,8.007q16.849,15.669,15.847,38.71a48.114,48.114,0,0,1-12.759,30.515q-14.82,15.984-36.257,15.969A46.993,46.993,0,0,1,131.232,312.614Z" transform="translate(486.878 119.95)" fill="#0091d9" opacity="0.25"/><path d="M131.232,312.614a50.267,50.267,0,0,1-19.912-44.657,46.966,46.966,0,0,1,3.558-14.15l-1.454.577a3.552,3.552,0,0,1-1.463.243,3.864,3.864,0,0,1-.585-7.689l0-.007,13.89-5.514,4.161,15.614a3.484,3.484,0,0,1-2.469,4.263l-.313.083a3.874,3.874,0,0,1-4.741-2.745l-.063-.237a40.992,40.992,0,0,0-2.531,14.494A40.617,40.617,0,0,0,160.1,313.736a40.616,40.616,0,0,0,40.845-40.782q.015-18.985-15-31.714a38.562,38.562,0,0,0-21.349-8.924,41.339,41.339,0,0,0-21.6,3.475,4.355,4.355,0,1,1-4.375-7.034,49.314,49.314,0,0,1,54.649,8.007q16.849,15.669,15.847,38.71a48.114,48.114,0,0,1-12.759,30.515q-14.82,15.984-36.257,15.969A46.993,46.993,0,0,1,131.232,312.614Z" transform="translate(282.937 241.642)" fill="#0091d9" opacity="0.25"/><path d="M131.232,312.614a50.267,50.267,0,0,1-19.912-44.657,46.966,46.966,0,0,1,3.558-14.15l-1.454.577a3.552,3.552,0,0,1-1.463.243,3.864,3.864,0,0,1-.585-7.689l0-.007,13.89-5.514,4.161,15.614a3.484,3.484,0,0,1-2.469,4.263l-.313.083a3.874,3.874,0,0,1-4.741-2.745l-.063-.237a40.992,40.992,0,0,0-2.531,14.494A40.617,40.617,0,0,0,160.1,313.736a40.616,40.616,0,0,0,40.845-40.782q.015-18.985-15-31.714a38.562,38.562,0,0,0-21.349-8.924,41.339,41.339,0,0,0-21.6,3.475,4.355,4.355,0,1,1-4.375-7.034,49.314,49.314,0,0,1,54.649,8.007q16.849,15.669,15.847,38.71a48.114,48.114,0,0,1-12.759,30.515q-14.82,15.984-36.257,15.969A46.993,46.993,0,0,1,131.232,312.614Z" transform="translate(416.886 241.642)" fill="#0091d9" opacity="0.25"/><path d="M131.232,312.614a50.267,50.267,0,0,1-19.912-44.657,46.966,46.966,0,0,1,3.558-14.15l-1.454.577a3.552,3.552,0,0,1-1.463.243,3.864,3.864,0,0,1-.585-7.689l0-.007,13.89-5.514,4.161,15.614a3.484,3.484,0,0,1-2.469,4.263l-.313.083a3.874,3.874,0,0,1-4.741-2.745l-.063-.237a40.992,40.992,0,0,0-2.531,14.494A40.617,40.617,0,0,0,160.1,313.736a40.616,40.616,0,0,0,40.845-40.782q.015-18.985-15-31.714a38.562,38.562,0,0,0-21.349-8.924,41.339,41.339,0,0,0-21.6,3.475,4.355,4.355,0,1,1-4.375-7.034,49.314,49.314,0,0,1,54.649,8.007q16.849,15.669,15.847,38.71a48.114,48.114,0,0,1-12.759,30.515q-14.82,15.984-36.257,15.969A46.993,46.993,0,0,1,131.232,312.614Z" transform="translate(550.835 241.642)" fill="#0091d9" opacity="0.25"/><path d="M25.294,7.045,18.726.47A1.609,1.609,0,0,0,17.585,0h-.409V8.588h8.588V8.179A1.605,1.605,0,0,0,25.294,7.045ZM15.029,9.125V0H1.61A1.606,1.606,0,0,0,0,1.61V32.741a1.606,1.606,0,0,0,1.61,1.61H24.153a1.606,1.606,0,0,0,1.61-1.61V10.735H16.639A1.615,1.615,0,0,1,15.029,9.125Zm4.294,10.735v3.22a.538.538,0,0,1-.537.537H15.029v3.757a.538.538,0,0,1-.537.537h-3.22a.538.538,0,0,1-.537-.537V23.617H6.978a.538.538,0,0,1-.537-.537v-3.22a.538.538,0,0,1,.537-.537h3.757V15.566a.538.538,0,0,1,.537-.537h3.22a.538.538,0,0,1,.537.537v3.757h3.757A.538.538,0,0,1,19.323,19.859Z" transform="translate(564.525 495.089)" fill="#0091d9"/><path d="M34.163,19.272h-.876V13.353a2.628,2.628,0,0,0-.772-1.856L27.046,6.028a2.628,2.628,0,0,0-1.856-.772H22.776V2.628A2.629,2.629,0,0,0,20.148,0H2.628A2.629,2.629,0,0,0,0,2.628v17.52a2.629,2.629,0,0,0,2.628,2.628H3.5a5.256,5.256,0,0,0,10.512,0h7.008a5.256,5.256,0,1,0,10.512,0h2.628a.879.879,0,0,0,.876-.876V20.148A.879.879,0,0,0,34.163,19.272ZM8.76,25.4a2.628,2.628,0,1,1,2.628-2.628A2.629,2.629,0,0,1,8.76,25.4Zm17.52,0a2.628,2.628,0,1,1,2.628-2.628A2.629,2.629,0,0,1,26.28,25.4Zm4.38-11.388H22.776V7.884H25.19l5.469,5.469Z" transform="translate(630.796 380.045)" fill="#0091d9"/><path d="M1.7,22.171h2.04c1.373,6.471,8.6,10.077,15.282,10.077s13.91-3.614,15.282-10.077h2.04a.756.756,0,0,0,.534-1.29l-4.222-4.222a.756.756,0,0,0-1.069,0l-4.222,4.222a.756.756,0,0,0,.534,1.29h2.214c-1.278,3.421-5.351,5.454-9.077,5.921V16.124h3.275a.756.756,0,0,0,.756-.756V12.849a.756.756,0,0,0-.756-.756H21.042v-.345a6.046,6.046,0,1,0-4.031,0v.345H13.736a.756.756,0,0,0-.756.756v2.519a.756.756,0,0,0,.756.756h3.275V28.092c-3.712-.466-7.8-2.5-9.077-5.921h2.214a.756.756,0,0,0,.534-1.29L6.46,16.659a.756.756,0,0,0-1.069,0L1.169,20.881A.756.756,0,0,0,1.7,22.171ZM19.026,4.031a2.015,2.015,0,1,1-2.015,2.015A2.018,2.018,0,0,1,19.026,4.031Z" transform="translate(493.637 376.222)" fill="#0091d9"/><path d="M35.08,33.268A16.724,16.724,0,0,0,28.505,32c-6.956,0-13.911,3.521-20.867,3.521a17.135,17.135,0,0,1-5.232-.775,1.931,1.931,0,0,0-.585-.091A1.8,1.8,0,0,0,0,36.451V54.368a1.8,1.8,0,0,0,1.064,1.664A16.715,16.715,0,0,0,7.638,57.3c6.956,0,13.912-3.521,20.868-3.521a17.135,17.135,0,0,1,5.232.775,1.931,1.931,0,0,0,.585.091,1.8,1.8,0,0,0,1.821-1.8V34.933a1.8,1.8,0,0,0-1.065-1.664ZM2.711,37.66a19.654,19.654,0,0,0,3.542.5,3.619,3.619,0,0,1-3.542,2.911Zm0,16.1v-2.7a3.613,3.613,0,0,1,3.6,3.468A13.643,13.643,0,0,1,2.711,53.755Zm15.361-3.683c-2.5,0-4.518-2.428-4.518-5.422s2.023-5.422,4.518-5.422,4.518,2.427,4.518,5.422S20.566,50.072,18.072,50.072Zm15.361,1.569a19.418,19.418,0,0,0-3.068-.477,3.607,3.607,0,0,1,3.068-2.783Zm0-13.334a3.607,3.607,0,0,1-3.152-3.476,13.576,13.576,0,0,1,3.152.715Z" transform="translate(424.468 471.114)" fill="#0091d9"/><path d="M16.261,6.49,3.924,17.372a2.612,2.612,0,0,1-.309.189V28a.9.9,0,0,0,.9.9h8.425l-2.1-4.11,5.877-3.613-3.4-6.731,8.358,7.722L15.8,25.786,18.056,28.9H28a.9.9,0,0,0,.9-.9V17.563a2.634,2.634,0,0,1-.3-.181ZM32.22,13.339l-3.313-2.926V2.71a.9.9,0,0,0-.9-.9H24.39a.9.9,0,0,0-.9.9V5.628L17.771.582a2.25,2.25,0,0,0-3.018,0L.3,13.339a.9.9,0,0,0-.068,1.276L1.441,15.96a.9.9,0,0,0,1.276.068L15.663,4.608a.9.9,0,0,1,1.2,0L29.8,16.027a.9.9,0,0,0,1.276-.068l1.208-1.345A.9.9,0,0,0,32.22,13.339Z" transform="translate(695.238 497.288)" fill="#0091d9"/></g></svg>